<?xml version="1.0" standalone="no"?>
<!DOCTYPE svg PUBLIC "-//W3C//DTD SVG 20010904//EN"
 "http://www.w3.org/TR/2001/REC-SVG-20010904/DTD/svg10.dtd">
<svg version="1.0" xmlns="http://www.w3.org/2000/svg"
 width="300.000000pt" height="158.000000pt" viewBox="0 0 300.000000 158.000000"
 preserveAspectRatio="xMidYMid meet">
<metadata>
Created by potrace 1.10, written by Peter Selinger 2001-2011
</metadata>
<g transform="translate(0.000000,158.000000) scale(0.100000,-0.100000)"
fill="#000000" stroke="none">
<path d="M10 790 c0 -520 3 -790 10 -790 7 0 10 270 10 790 0 520 -3 790 -10
790 -7 0 -10 -270 -10 -790z"/>
<path d="M606 1558 c-3 -13 -6 -94 -6 -180 0 -159 -5 -183 -36 -157 -21 17
-36 -1 -32 -37 3 -33 35 -45 53 -21 10 14 14 12 29 -14 18 -30 17 -31 -3 -53
-12 -12 -21 -29 -21 -37 0 -50 -74 -80 -102 -41 -20 27 -60 52 -85 52 -12 0
-34 -10 -49 -23 -21 -19 -27 -32 -27 -66 0 -35 6 -48 32 -71 27 -25 31 -35 31
-80 0 -45 4 -55 41 -95 l42 -45 72 0 c68 0 74 2 104 32 29 30 34 31 98 29 37
-1 70 -4 72 -7 2 -2 4 -19 5 -38 1 -22 9 -40 24 -52 19 -16 21 -24 13 -49 -5
-16 -10 -25 -10 -18 -2 20 -61 33 -152 33 -48 0 -100 5 -116 12 -15 6 -50 12
-76 14 -38 2 -52 -2 -67 -19 -11 -11 -20 -25 -20 -30 0 -5 -11 -20 -25 -33
-15 -14 -22 -29 -19 -39 7 -17 19 -12 19 8 0 24 20 17 23 -8 3 -19 -1 -25 -15
-25 -16 -1 -16 -2 -3 -13 9 -7 17 -31 18 -57 8 -153 6 -151 223 -151 202 0
205 1 218 91 1 3 19 5 41 5 35 0 39 -2 34 -20 -4 -11 -16 -32 -27 -47 -17 -23
-18 -30 -7 -43 7 -8 10 -18 7 -22 -4 -3 -2 -12 4 -20 9 -11 -1 -13 -59 -13
-92 0 -102 -12 -102 -127 0 -49 4 -83 10 -83 6 0 10 34 10 83 0 51 5 88 12 95
8 8 68 12 204 12 166 0 193 -2 198 -16 3 -9 6 -51 6 -95 0 -46 4 -79 10 -79
13 0 13 155 0 180 -7 13 -6 19 6 24 22 9 37 -3 31 -25 -7 -25 31 -53 50 -37 7
6 13 21 13 34 0 28 5 31 55 35 44 3 85 32 85 61 0 11 -7 33 -16 50 -9 17 -14
41 -11 55 2 13 0 26 -5 29 -6 4 4 19 21 35 38 34 39 51 5 78 -15 12 -23 25
-18 32 4 8 3 9 -4 5 -8 -4 -12 0 -12 11 -1 42 -52 74 -107 66 -25 -3 -43 -1
-47 6 -5 8 22 11 93 11 l100 0 3 -38 c3 -32 6 -37 28 -37 21 0 26 6 30 35 l5
35 79 3 c78 3 78 3 72 -20 -4 -13 -9 -31 -11 -42 -2 -10 -17 -35 -32 -55 -24
-31 -28 -44 -26 -94 1 -31 -3 -57 -8 -57 -15 0 -49 -63 -49 -91 0 -36 19 -49
83 -56 42 -4 60 -1 81 12 20 14 30 15 39 6 6 -6 19 -11 29 -11 30 0 24 -65 -8
-93 -43 -37 -63 -40 -74 -12 -11 28 -20 31 -38 13 -17 -17 -15 -53 3 -68 8 -7
15 -28 15 -46 0 -46 28 -47 32 -1 2 22 10 35 26 42 12 5 25 18 28 27 7 24 39
33 114 33 37 0 65 4 65 10 0 6 -23 10 -52 10 -29 0 -57 5 -63 11 -16 16 -4 51
22 65 28 15 38 0 11 -18 -37 -25 -27 -32 44 -35 56 -2 68 -6 71 -21 7 -36 -16
-47 -98 -47 -57 0 -81 -4 -90 -15 -11 -13 7 -15 152 -15 177 0 188 -3 188 -52
0 -28 14 -38 22 -15 3 6 4 27 2 45 -1 24 2 32 15 32 9 0 22 5 28 11 11 11 121
7 195 -6 63 -12 96 37 93 137 -2 72 -22 88 -110 88 l-71 0 0 74 c1 58 -3 78
-17 94 -27 29 -65 37 -88 16 -17 -15 -19 -15 -34 0 -28 27 -94 -1 -95 -41 0
-7 -5 -13 -10 -13 -14 0 -6 -55 14 -106 13 -31 14 -47 6 -68 -12 -34 -13 -97
-1 -129 13 -32 2 -44 -39 -43 -33 1 -35 3 -38 38 -3 39 -30 68 -64 68 -23 0
-98 72 -98 94 0 9 -6 26 -12 37 -11 17 -10 23 0 26 20 8 112 83 111 91 -1 4
-1 31 0 59 l1 53 88 -4 c48 -3 103 -1 122 2 30 7 35 12 38 40 2 20 10 36 20
39 9 4 20 11 23 16 14 21 29 -6 26 -48 -8 -112 120 -179 224 -118 22 13 33 14
51 6 47 -23 75 -24 103 -1 25 19 27 26 22 68 -5 39 -2 48 14 59 24 14 22 49
-3 64 -22 14 -48 -7 -48 -40 0 -18 -5 -24 -17 -21 -11 2 -17 11 -15 23 2 11 4
59 5 107 1 58 6 88 13 88 23 0 35 26 24 54 -12 33 -38 33 -50 0 -9 -23 -11
-24 -26 -9 -9 9 -15 17 -13 18 2 1 13 7 24 13 11 6 27 23 35 38 14 26 14 28
-14 52 -19 17 -37 24 -53 21 -36 -7 -27 17 12 32 19 7 49 24 65 38 25 20 30
32 30 67 0 49 -14 66 -77 91 l-43 17 26 20 c28 23 29 55 2 71 -25 16 -51 -10
-46 -45 5 -33 6 -33 -34 -12 -41 21 -96 14 -179 -25 l-63 -29 -13 29 c-7 16
-19 29 -27 29 -20 0 -32 -48 -18 -70 5 -9 8 -37 5 -63 -7 -60 13 -92 73 -117
30 -13 44 -25 44 -38 0 -16 -9 -19 -57 -21 -31 -1 -76 1 -99 5 -44 6 -48 18
-19 54 7 8 13 45 14 82 2 60 0 68 -21 82 -16 10 -49 16 -93 17 -98 1 -100 2
-103 55 -3 45 -2 46 20 39 13 -5 72 -10 132 -12 118 -5 146 5 146 52 0 37 12
85 20 80 4 -2 21 8 39 23 36 31 59 92 35 92 -8 0 -14 -9 -14 -20 0 -12 -11
-32 -25 -45 -24 -25 -55 -33 -55 -15 0 6 7 10 15 10 18 0 49 45 42 62 -4 9 -6
8 -6 -3 -1 -20 -39 -55 -49 -45 -4 4 1 13 11 20 25 19 21 36 -8 36 -24 0 -24
-1 -27 -107 l-3 -108 -120 0 -120 0 -3 108 c-3 106 -3 107 -27 107 -30 0 -32
-14 -4 -33 11 -8 16 -17 11 -21 -11 -7 -36 12 -50 39 -6 11 -12 14 -12 7 0 -8
14 -27 30 -44 31 -31 33 -45 5 -35 -13 6 -49 55 -59 82 -2 6 -7 7 -11 3 -5 -5
-2 -26 5 -49 10 -30 22 -44 48 -54 18 -8 31 -19 28 -24 -4 -5 -2 -12 3 -16 6
-3 7 -13 4 -21 -7 -18 -19 -8 -37 28 -9 18 -22 24 -62 28 -79 8 -96 1 -116
-50 -9 -25 -17 -70 -18 -100 0 -71 -8 -100 -25 -94 -7 3 -23 1 -34 -6 -18 -9
-21 -8 -22 7 -4 94 -9 136 -19 149 -17 20 -430 19 -457 -1 -16 -12 -18 -32
-20 -151 -1 -76 2 -145 8 -155 6 -12 22 -20 42 -20 30 -2 31 -2 4 -6 -15 -2
-25 -9 -22 -14 4 -5 -8 -9 -24 -9 -23 0 -31 5 -32 18 0 13 -2 12 -9 -5 -6 -15
-15 -21 -25 -17 -12 5 -13 9 -4 20 21 26 4 24 -37 -3 -21 -14 -42 -29 -46 -32
-4 -3 272 -5 612 -3 l620 2 -9 -22 c-4 -13 -11 -35 -15 -50 -6 -28 -6 -28 49
-28 l56 0 -61 -82 c-33 -45 -60 -87 -60 -93 0 -5 7 -37 15 -70 8 -33 14 -63
15 -67 0 -5 -53 -8 -117 -8 -86 0 -114 3 -106 11 6 6 9 18 6 25 -3 8 0 14 6
14 6 0 11 7 11 15 0 8 4 15 9 15 15 0 23 -18 11 -25 -5 -3 -10 -11 -10 -16 0
-11 39 10 81 42 24 18 13 19 -594 16 l-619 -2 6 25 c3 14 9 36 12 49 l7 23
-82 -3 c-44 -2 -81 -3 -81 -1 0 2 30 37 66 78 l67 73 -2 86 -2 85 111 0 c72 0
109 4 105 10 -3 6 -44 10 -91 10 -46 0 -84 3 -84 6 0 3 9 17 20 31 18 23 20
41 20 188 0 142 2 164 16 169 9 4 18 5 19 4 1 -2 7 -18 15 -36 7 -18 20 -37
29 -41 9 -5 63 -11 121 -15 128 -7 168 4 184 51 6 17 23 41 39 53 15 12 27 28
27 36 0 16 16 19 25 4 10 -16 42 -12 49 6 5 14 4 15 -9 4 -12 -10 -19 -10 -27
-2 -21 21 -54 14 -66 -13 -11 -23 -17 -25 -82 -25 -54 0 -70 -3 -70 -14 0 -10
14 -16 43 -18 35 -2 43 -7 45 -25 3 -23 3 -23 -137 -23 l-141 0 0 25 c0 23 4
25 40 25 28 0 40 4 40 15 0 11 -16 15 -67 17 -59 3 -69 6 -78 26 -9 21 -14 22
-161 22 -149 0 -152 0 -158 -22z m269 -198 l0 -205 -120 0 -120 0 -3 195 c-1
107 0 200 3 208 3 10 32 12 122 10 l118 -3 0 -205z m955 64 c0 -14 9 -37 20
-51 17 -22 20 -40 19 -151 0 -69 -4 -134 -10 -144 -5 -10 -21 -18 -34 -18 -13
0 -27 -4 -30 -10 -3 -5 -15 -10 -26 -10 -10 0 -19 5 -19 10 0 6 -11 10 -25 10
-38 0 -45 28 -45 168 0 103 3 132 15 142 8 7 15 28 15 46 l0 34 60 0 c58 0 60
-1 60 -26z m-596 -70 c12 -30 7 -269 -6 -282 -16 -16 -100 -16 -116 0 -13 13
-18 252 -6 282 9 23 119 23 128 0z m311 -104 l0 -115 -47 -3 c-60 -4 -63 -22
-4 -22 44 0 58 -11 48 -37 -3 -10 -40 -13 -138 -13 l-134 0 0 25 c0 23 4 25
45 25 25 0 45 5 45 10 0 6 -22 10 -50 10 -41 0 -50 3 -50 18 -3 97 0 204 5
212 4 7 55 10 143 8 l137 -3 0 -115z m989 76 c-4 -9 -14 -16 -23 -14 -20 4
-27 38 -9 49 18 11 40 -13 32 -35z m-349 -74 c-2 -3 -12 -1 -22 2 -14 6 -15 9
-4 15 10 7 10 10 1 16 -9 6 -9 9 1 16 10 6 16 1 21 -18 4 -15 5 -29 3 -31z
m256 31 c25 -21 91 -53 110 -53 25 0 49 -27 49 -55 0 -28 -46 -75 -73 -75 -11
0 -30 -9 -44 -20 -14 -11 -30 -17 -35 -14 -13 8 43 59 62 56 8 -1 29 9 45 22
25 20 28 28 19 43 -6 10 -23 19 -37 21 -14 2 -31 10 -37 18 -7 8 -20 14 -29
14 -9 0 -24 9 -34 20 -20 24 -79 27 -97 5 -7 -8 -23 -15 -36 -15 -12 0 -29 -8
-36 -18 -7 -10 -25 -22 -39 -25 -15 -4 -30 -14 -33 -23 -9 -23 12 -54 37 -54
24 0 93 -65 79 -74 -5 -3 -21 5 -35 18 -15 14 -36 26 -48 28 -12 2 -31 15 -42
30 -26 34 -16 74 21 90 15 7 35 20 45 30 10 10 26 18 35 18 10 0 35 9 55 19
39 20 71 18 98 -6z m-1877 -95 c5 -21 3 -28 -8 -28 -13 0 -16 27 -7 59 2 9 8
-5 15 -31z m1516 -36 c0 -40 -5 -73 -12 -80 -7 -7 -40 -12 -78 -12 -38 0 -71
5 -78 12 -7 7 -12 40 -12 80 l0 68 90 0 90 0 0 -68z m-440 33 c0 -25 -23 -35
-35 -15 -10 16 2 40 20 40 9 0 15 -9 15 -25z m730 -8 c0 -7 -5 -18 -12 -25 -9
-9 -7 -16 7 -32 10 -11 15 -23 11 -27 -4 -4 -11 -1 -16 7 -7 10 -10 -4 -10
-45 0 -34 -5 -66 -12 -73 -14 -14 -158 -17 -158 -2 0 5 33 10 73 12 l72 3 3
53 c2 29 -1 52 -5 51 -22 -4 -25 3 -9 20 15 16 15 22 5 39 -18 28 4 56 32 41
10 -5 19 -15 19 -22z m80 -2 c0 -8 -6 -18 -13 -22 -9 -6 -11 -28 -7 -83 l5
-75 42 -3 c35 -3 42 0 37 12 -8 21 3 20 32 -3 l23 -18 -23 -22 c-26 -25 -41
-27 -32 -6 4 12 -3 15 -37 15 -24 0 -48 5 -55 12 -7 7 -12 43 -12 90 0 45 -4
78 -10 78 -15 0 -12 48 3 53 17 6 47 -11 47 -28z m60 12 c11 3 20 1 20 -4 0
-13 -22 -33 -36 -33 -15 0 -26 28 -17 43 5 8 8 8 10 0 2 -6 13 -9 23 -6z
m-220 -11 c0 -8 -4 -17 -9 -20 -12 -8 -41 4 -41 16 0 5 5 6 10 3 6 -3 10 -1
10 4 0 6 7 11 15 11 8 0 15 -6 15 -14z m-675 -66 c25 -28 14 -48 -24 -42 -33
5 -41 28 -19 50 16 16 22 15 43 -8z m-785 -9 c-5 -11 -10 -42 -10 -70 0 -28
-2 -51 -4 -51 -2 0 -11 -3 -20 -6 -13 -5 -16 2 -16 43 0 39 -5 56 -25 77 l-24
26 55 0 c51 0 54 -1 44 -19z m-93 -26 c28 -27 27 -74 -3 -104 -13 -13 -30 -21
-38 -18 -9 4 -18 2 -21 -3 -8 -13 -35 -1 -35 16 0 8 -6 14 -14 14 -19 0 -27
25 -13 39 8 8 8 11 -1 11 -17 0 -15 12 9 42 26 32 83 34 116 3z m951 -32 c14
-23 14 -23 -27 -23 -42 0 -53 14 -29 38 17 17 38 11 56 -15z m-415 -9 c-6 -16
-43 -19 -43 -4 0 6 -12 11 -27 11 -25 1 -24 2 7 8 45 9 70 3 63 -15z m635 6
c11 -19 10 -20 -23 -20 -33 0 -34 1 -23 20 7 11 17 20 23 20 6 0 16 -9 23 -20z
m-1460 -17 c9 -9 18 -21 18 -27 1 -6 2 -17 3 -23 1 -10 7 -10 28 0 21 9 27 9
31 -1 5 -16 29 -16 35 1 6 20 62 -4 62 -28 0 -13 8 -21 21 -23 29 -4 48 -46
28 -63 -13 -11 -13 -14 0 -27 21 -21 1 -76 -25 -69 -14 4 -19 0 -19 -14 0 -10
-13 -25 -30 -34 -27 -14 -30 -14 -39 3 -9 16 -11 16 -27 0 -15 -15 -20 -15
-45 -2 -17 9 -26 20 -23 28 4 10 -2 16 -18 18 -28 4 -50 54 -29 67 11 7 10 12
-1 30 -16 26 -2 54 31 59 11 2 21 10 21 18 0 18 -14 18 -29 0 -15 -18 -51 -17
-73 2 -21 17 -24 66 -5 87 17 20 65 19 85 -2z m1958 -61 c11 -11 33 -24 49
-30 l30 -10 -27 -1 c-15 -1 -39 -6 -54 -11 -20 -8 -32 -7 -49 4 -32 21 -50 0
-41 -48 6 -30 3 -37 -23 -55 -16 -12 -37 -41 -47 -66 -15 -42 -18 -44 -34 -30
-9 8 -22 15 -29 15 -22 0 4 56 44 95 30 29 39 100 12 96 -4 -1 -17 0 -29 0
-36 2 28 16 78 18 26 1 48 8 60 20 24 25 35 25 60 3z m-1606 -22 c0 -11 0 -23
1 -27 0 -5 -7 -9 -15 -11 -11 -2 -14 4 -11 25 2 15 4 29 4 31 1 1 6 2 11 2 6
0 10 -9 10 -20z m-37 -27 c6 -32 -14 -65 -42 -70 -29 -4 -27 62 2 82 29 21 34
19 40 -12z m1839 -18 c4 -19 1 -25 -12 -25 -14 0 -19 22 -11 48 4 12 20 -3 23
-23z m-252 -10 c0 -14 -6 -25 -13 -25 -8 0 -13 9 -11 23 3 28 2 27 14 27 6 0
10 -11 10 -25z m171 -24 c25 -25 29 -37 29 -83 0 -29 -7 -84 -15 -123 -11 -55
-12 -74 -2 -95 16 -32 51 -34 55 -2 2 14 -2 22 -12 22 -8 0 -18 5 -21 10 -3 6
5 10 19 10 37 0 52 -34 31 -66 -21 -33 -61 -29 -88 8 -20 27 -20 28 -3 131 25
145 7 197 -68 197 -24 0 -66 -30 -66 -48 0 -4 14 -12 32 -17 49 -15 70 -53 75
-131 6 -117 -30 -174 -111 -174 -83 0 -116 51 -111 168 4 82 22 119 64 135 15
5 33 22 39 37 25 56 106 67 153 21z m-314 -157 c3 -8 -1 -23 -10 -32 -15 -14
-17 -14 -23 1 -8 21 1 47 16 47 6 0 13 -7 17 -16z m441 -50 c-4 -25 -32 -24
-36 0 -4 21 18 40 31 27 5 -5 7 -17 5 -27z m-1631 -17 c4 -6 0 -8 -10 -4 -10
3 -17 3 -17 -2 0 -4 -11 -14 -25 -21 -22 -12 -24 -20 -27 -89 -3 -69 -5 -76
-23 -74 -10 1 -27 -3 -37 -8 -17 -9 -18 -4 -18 61 0 68 1 70 25 70 23 0 51 31
38 43 -3 3 -3 13 0 22 7 17 84 19 94 2z m148 5 c-10 -10 -95 -11 -95 -2 0 5
23 9 50 9 28 -1 48 -4 45 -7z m-258 -28 c8 -21 -13 -42 -28 -27 -13 13 -5 43
11 43 6 0 13 -7 17 -16z m573 7 c0 -5 3 -16 6 -25 4 -11 0 -16 -12 -16 -13 0
-19 8 -20 25 -1 15 3 25 12 25 8 0 14 -4 14 -9z m404 -7 c23 -22 22 -141 -1
-166 -9 -10 -24 -18 -33 -18 -9 0 -25 -9 -35 -20 -10 -11 -22 -20 -27 -20 -4
0 -8 9 -8 20 0 30 -38 26 -50 -6 -14 -37 -13 -41 15 -48 24 -6 55 -51 55 -81
0 -24 -20 -18 -21 8 l-2 22 -4 -22 c-7 -36 -23 -27 -23 12 0 35 -29 63 -38 37
-2 -7 -9 -12 -16 -12 -8 0 -11 -10 -8 -30 4 -30 4 -30 -47 -30 -49 0 -51 1
-52 28 l-1 27 -11 -27 c-12 -30 -27 -37 -27 -13 0 30 31 75 55 81 28 7 29 13
14 68 -14 51 -5 84 26 92 22 5 25 12 25 48 0 23 5 47 12 54 19 19 183 16 202
-4z m-1318 -9 c5 -12 28 -15 119 -15 149 0 145 4 145 -150 0 -104 -2 -121 -18
-129 -23 -12 -320 -13 -343 0 -17 9 -19 23 -19 159 l0 150 55 0 c40 0 57 -4
61 -15z m802 -17 c8 -8 12 -55 12 -144 0 -123 1 -132 20 -137 14 -4 18 -10 13
-24 -15 -43 -17 -43 -244 -43 -187 0 -220 2 -234 16 -21 22 -15 48 13 52 22 3
22 6 22 142 0 101 3 140 13 143 6 3 93 6 192 6 128 1 184 -2 193 -11z m67 -88
c8 -13 -4 -50 -16 -50 -13 0 -22 27 -15 45 6 17 22 20 31 5z m705 -9 c0 -5
-11 -12 -24 -15 -56 -14 -55 -109 2 -136 15 -7 22 -15 15 -17 -21 -8 -54 18
-69 54 -17 39 -11 68 19 101 20 22 57 30 57 13z m105 -16 c35 -34 35 -96 0
-130 -24 -25 -55 -33 -55 -15 0 6 5 10 12 10 6 0 20 7 30 17 35 31 14 123 -29
123 -7 0 -13 5 -13 10 0 18 31 10 55 -15z m-105 -13 c0 -4 -9 -13 -20 -20 -26
-16 -25 -47 2 -66 24 -17 20 -30 -6 -20 -34 13 -41 66 -13 102 10 13 37 17 37
4z m30 -82 l0 -89 133 -3 132 -3 3 -68 c3 -60 0 -71 -20 -92 -26 -28 -58 -33
-58 -10 0 12 -18 15 -105 15 -72 0 -104 -4 -102 -11 1 -6 -8 -13 -20 -15 -15
-2 -23 1 -23 10 0 8 -7 17 -15 20 -13 5 -15 20 -13 78 l3 73 33 3 32 3 0 90
c0 53 4 89 10 89 6 0 10 -37 10 -90z m52 73 c10 -9 18 -28 18 -43 0 -28 -35
-69 -47 -56 -5 4 0 12 10 17 21 12 23 65 2 73 -8 3 -15 10 -15 16 0 15 11 12
32 -7z m-1312 -33 c0 -11 0 -23 1 -27 0 -4 -4 -9 -10 -11 -6 -2 -11 10 -11 27
0 17 5 31 10 31 6 0 10 -9 10 -20z m374 -242 c5 -23 3 -28 -12 -28 -20 0 -26
40 -8 52 13 8 12 9 20 -24z m386 -42 c0 -8 3 -21 6 -30 4 -11 0 -16 -14 -16
-17 0 -20 5 -18 28 4 33 4 32 16 32 6 0 10 -6 10 -14z"/>
<path d="M745 1553 c103 -6 107 -7 103 -56 l-3 -42 -89 -3 c-65 -2 -92 1 -98
10 -5 8 -8 2 -8 -17 0 -19 3 -25 8 -17 6 9 33 12 98 10 l89 -3 3 -43 3 -43
-100 3 c-85 2 -101 1 -101 -12 0 -13 16 -14 100 -12 l100 3 0 -45 0 -46 -94 0
c-66 0 -96 4 -99 13 -3 6 -6 -9 -6 -35 l-1 -48 105 0 105 0 -2 193 -3 192 -85
1 c-48 0 -59 -1 -25 -3z m-35 -352 c0 -10 -8 -17 -20 -17 -14 0 -20 7 -20 22
0 17 4 21 20 17 11 -3 20 -13 20 -22z m100 1 c0 -11 -8 -18 -20 -19 -14 -1
-20 4 -20 18 0 12 7 19 20 19 13 0 20 -7 20 -18z"/>
<path d="M670 1500 l0 -31 83 3 c80 3 82 4 82 28 0 24 -2 25 -82 28 l-83 3 0
-31z m150 -1 c0 -18 -30 -21 -42 -4 -5 7 -8 6 -8 0 0 -6 -9 -11 -20 -11 -11 0
-20 7 -20 16 0 11 11 15 45 15 35 0 45 -4 45 -16z"/>
<path d="M670 1390 l0 -31 83 3 c80 3 82 4 82 28 0 24 -2 25 -82 28 l-83 3 0
-31z m150 3 c0 -7 -9 -13 -20 -13 -11 0 -20 6 -20 14 0 9 9 14 20 13 11 -1 20
-7 20 -14z"/>
<path d="M672 1290 l3 -32 80 -1 80 0 0 29 0 29 -83 3 -83 3 3 -31z m148 -5
c0 -11 -12 -15 -45 -15 -33 0 -45 4 -45 15 0 11 12 15 45 15 33 0 45 -4 45
-15z"/>
<path d="M1730 1421 c0 -5 10 -12 23 -14 l22 -4 -22 -2 c-13 0 -23 -6 -23 -12
0 -6 17 -9 43 -7 34 2 42 7 42 23 0 16 -8 21 -42 23 -24 2 -43 -1 -43 -7z"/>
<path d="M1709 1354 c-5 -7 -8 -65 -7 -140 l3 -129 65 0 65 0 0 140 0 139 -58
1 c-34 1 -62 -4 -68 -11z m21 -130 c0 -81 -4 -123 -10 -119 -6 4 -10 55 -10
119 0 99 4 126 17 126 2 0 3 -57 3 -126z m81 -1 c-3 -94 -5 -103 -27 -103 -11
0 -14 20 -14 103 0 57 3 107 7 111 4 3 14 0 22 -9 12 -11 15 -35 12 -102z"/>
<path d="M1120 1325 c0 -23 3 -25 50 -25 47 0 50 2 50 25 0 23 -3 25 -50 25
-47 0 -50 -2 -50 -25z"/>
<path d="M1120 1265 c0 -11 12 -15 50 -15 38 0 50 4 50 15 0 11 -12 15 -50 15
-38 0 -50 -4 -50 -15z"/>
<path d="M1120 1220 c0 -5 23 -10 50 -10 28 0 50 5 50 10 0 6 -22 10 -50 10
-27 0 -50 -4 -50 -10z"/>
<path d="M1120 1140 l0 -50 50 0 50 0 0 50 0 50 -50 0 -50 0 0 -50z"/>
<path d="M1270 1250 l0 -101 133 3 132 3 0 94 c0 75 -3 95 -15 99 -12 4 -13 2
-2 -9 17 -19 16 -153 -2 -168 -9 -8 -51 -11 -122 -9 l-109 3 0 85 0 85 90 6
90 5 -97 2 -98 2 0 -100z"/>
<path d="M1300 1253 l0 -73 105 0 105 0 0 73 0 72 -105 0 -105 0 0 -72z m154
40 c4 -5 13 -8 19 -8 7 0 13 -10 15 -22 2 -17 -2 -23 -15 -23 -15 0 -16 -2 -3
-10 24 -15 5 -22 -57 -22 -83 0 -86 1 -80 16 3 7 0 19 -6 25 -21 21 21 51 73
51 26 0 50 -3 54 -7z"/>
<path d="M1985 1190 c49 -4 65 -8 52 -14 -10 -5 -40 -6 -68 -4 l-50 5 3 -46 3
-46 65 0 65 0 3 58 3 57 -73 -2 -73 -2 70 -6z m29 -49 c3 -5 -1 -14 -9 -21
-12 -10 -18 -10 -30 0 -13 11 -13 15 -3 21 17 11 35 11 42 0z"/>
<path d="M640 1061 c-21 -22 -19 -52 5 -76 32 -32 89 -8 90 39 0 45 -64 70
-95 37z m73 -23 c22 -34 -36 -66 -62 -34 -9 11 -10 20 -1 36 13 25 47 24 63
-2z"/>
<path d="M663 1034 c-8 -21 13 -42 28 -27 13 13 5 43 -11 43 -6 0 -13 -7 -17
-16z"/>
<path d="M382 1008 c-16 -16 -15 -45 1 -55 19 -12 47 -14 47 -3 0 6 -9 10 -19
10 -27 0 -36 19 -18 37 18 18 37 9 37 -18 0 -10 4 -19 10 -19 11 0 9 28 -3 48
-10 15 -39 16 -55 0z"/>
<path d="M489 953 c-1 -5 -2 -15 -3 -23 0 -8 -12 -20 -26 -27 -27 -13 -33 -34
-12 -40 6 -3 12 2 12 9 0 20 42 58 64 58 15 0 16 3 6 15 -13 16 -39 20 -41 8z"/>
<path d="M560 945 c-10 -13 -9 -15 8 -15 24 0 72 -53 72 -80 0 -34 -22 -69
-52 -82 -30 -14 -32 -31 -5 -36 11 -2 21 6 27 23 6 15 18 29 28 32 14 3 18 15
18 58 0 47 -3 55 -22 59 -14 4 -24 15 -26 28 -4 27 -30 35 -48 13z"/>
<path d="M495 895 c-14 -13 -25 -36 -25 -50 0 -35 42 -75 78 -75 67 0 99 88
46 129 -35 28 -69 26 -99 -4z m95 -5 c39 -39 11 -110 -44 -110 -25 0 -66 41
-66 67 0 21 46 63 70 63 11 0 29 -9 40 -20z"/>
<path d="M512 878 c-28 -28 -7 -78 33 -78 40 0 61 50 33 78 -7 7 -21 12 -33
12 -12 0 -26 -5 -33 -12z"/>
<path d="M442 821 c-18 -11 -4 -39 21 -43 14 -2 23 -11 25 -25 4 -24 10 -27
36 -17 22 8 20 24 -2 24 -18 0 -56 34 -63 57 -2 7 -9 9 -17 4z"/>
<path d="M2335 778 c-30 -17 -44 -40 -45 -70 0 -23 4 -28 24 -28 19 0 25 6 28
28 2 21 8 27 28 27 20 0 26 -6 28 -27 3 -24 8 -28 33 -28 24 0 29 4 29 24 0
38 -10 56 -41 71 -33 18 -57 18 -84 3z"/>
<path d="M2360 681 c0 -22 5 -43 10 -46 6 -4 10 12 10 39 0 25 -4 46 -10 46
-5 0 -10 -18 -10 -39z"/>
<path d="M2290 615 c0 -58 32 -95 83 -95 54 0 84 31 89 90 l3 50 -32 0 c-26 0
-33 -4 -33 -19 0 -11 -6 -21 -12 -24 -19 -6 -48 11 -48 28 0 9 -10 15 -25 15
-23 0 -25 -4 -25 -45z m130 -27 c0 -11 -31 -38 -43 -38 -14 0 -28 10 -44 31
-11 14 -7 15 37 15 28 -1 50 -4 50 -8z"/>
<path d="M1697 604 c-4 -4 -7 -24 -7 -44 0 -30 5 -39 25 -48 17 -8 25 -20 25
-37 0 -21 5 -25 30 -25 22 0 30 -5 30 -17 1 -17 1 -17 11 0 5 9 18 17 28 17
32 0 42 25 39 92 l-3 63 -85 3 c-47 1 -89 0 -93 -4z m163 -24 c0 -6 -32 -10
-75 -10 -43 0 -75 4 -75 10 0 6 32 10 75 10 43 0 75 -4 75 -10z m0 -30 c0 -6
-32 -10 -75 -10 -43 0 -75 4 -75 10 0 6 32 10 75 10 43 0 75 -4 75 -10z m-3
-36 c-10 -11 -96 -14 -102 -4 -4 6 17 10 51 10 32 0 55 -3 51 -6z m3 -34 c0
-5 -16 -10 -35 -10 -19 0 -35 5 -35 10 0 6 16 10 35 10 19 0 35 -4 35 -10z"/>
<path d="M1636 491 c-10 -15 10 -22 37 -12 17 7 28 6 37 -2 10 -9 11 -9 8 3
-5 17 -73 26 -82 11z"/>
<path d="M1655 416 c-16 -11 -16 -13 0 -26 17 -14 45 -5 52 17 6 16 -34 23
-52 9z"/>
<path d="M1607 333 c-17 -16 -4 -29 28 -30 19 -1 35 3 35 8 0 5 -7 9 -15 9 -8
0 -15 5 -15 10 0 11 -23 14 -33 3z"/>
<path d="M470 465 l0 -135 170 0 170 0 0 105 0 105 -115 0 -114 0 -16 30 c-13
26 -21 30 -55 30 l-40 0 0 -135z m81 69 c23 -22 26 -31 18 -50 -5 -14 -9 -39
-10 -57 -2 -40 -18 -77 -35 -77 -16 0 -22 30 -24 128 -1 92 6 99 51 56z m121
-31 c37 -45 50 -121 24 -142 -8 -7 -36 -11 -63 -9 -48 3 -48 3 -51 42 -2 21 4
54 14 75 25 54 49 65 76 34z m106 -61 c2 -38 -2 -69 -9 -78 -25 -30 -31 -17
-45 94 l-6 54 28 -4 c28 -3 29 -5 32 -66z"/>
<path d="M620 476 c0 -11 9 -16 26 -16 31 0 28 23 -4 28 -15 2 -22 -2 -22 -12z"/>
<path d="M600 406 c0 -36 0 -36 46 -36 45 0 45 0 42 33 -3 30 -6 32 -45 35
l-43 3 0 -35z"/>
<path d="M643 563 c32 -2 81 -2 110 0 29 2 3 3 -58 3 -60 0 -84 -1 -52 -3z"/>
<path d="M985 537 c-4 -25 -5 -86 -3 -138 l3 -94 185 2 185 3 0 132 0 133
-182 3 -182 2 -6 -43z m353 -94 l-3 -118 -165 0 -165 0 -3 104 c-1 58 0 111 2
118 4 10 43 13 171 13 l166 0 -3 -117z"/>
<path d="M1108 542 l-88 -3 0 -99 0 -100 153 0 152 0 0 100 c0 100 0 100 -25
101 -64 4 -112 4 -192 1z m192 -62 l0 -50 -130 0 -130 0 0 50 0 50 130 0 130
0 0 -50z m-180 -92 c0 -9 3 -9 12 0 15 15 61 15 76 0 9 -9 12 -9 12 1 0 8 12
11 38 9 29 -2 37 -7 37 -23 0 -19 -7 -20 -122 -22 -122 -2 -141 3 -129 32 7
18 76 21 76 3z"/>
<path d="M1060 482 l0 -29 101 -6 c56 -4 106 -4 110 -1 5 3 9 18 9 35 l0 29
-110 0 -110 0 0 -28z m206 -4 c2 -15 -5 -18 -37 -18 -33 0 -39 3 -39 21 0 17
5 20 37 17 25 -2 37 -8 39 -20z"/>
<path d="M946 275 c7 -17 44 -21 44 -5 0 6 7 10 16 10 8 0 12 -4 9 -10 -3 -5
1 -10 10 -10 9 0 13 5 10 10 -3 6 1 10 10 10 9 0 13 -4 10 -10 -4 -6 45 -10
140 -10 95 0 144 4 140 10 -3 6 1 10 10 10 9 0 13 -4 10 -10 -3 -5 3 -10 14
-10 12 0 21 7 21 15 0 13 -32 15 -225 15 -195 0 -224 -2 -219 -15z"/>
<path d="M2128 272 c-16 -2 -28 -7 -28 -12 0 -5 72 -8 160 -7 88 1 160 5 160
9 0 7 -244 15 -292 10z"/>
<path d="M2100 215 l0 -25 160 0 c159 0 160 0 160 23 0 22 -1 22 -160 24
l-160 2 0 -24z m100 -4 c0 -4 -18 -8 -40 -8 -22 0 -40 4 -40 8 0 5 18 9 40 9
22 0 40 -4 40 -9z"/>
<path d="M2100 160 c0 -6 60 -10 160 -10 100 0 160 4 160 10 0 6 -60 10 -160
10 -100 0 -160 -4 -160 -10z"/>
<path d="M940 1565 c0 -13 27 -15 185 -15 158 0 185 2 185 15 0 13 -27 15
-185 15 -158 0 -185 -2 -185 -15z"/>
<path d="M1446 1553 c-15 -14 -25 -32 -22 -39 7 -18 -4 -25 -23 -14 -25 13
-43 -3 -39 -36 2 -23 8 -29 28 -29 19 0 25 5 25 22 0 29 10 36 25 18 8 -10 30
-15 66 -15 l53 0 3 -37 c3 -33 6 -38 28 -38 22 0 25 4 24 38 -1 35 0 37 32 37
34 0 64 21 64 45 0 7 -12 27 -26 44 -21 26 -33 31 -67 30 l-42 -1 35 -15 c37
-16 80 -51 80 -65 0 -4 -54 -8 -120 -8 -67 0 -120 4 -120 9 0 16 33 43 75 62
l40 19 -46 0 c-37 0 -52 -5 -73 -27z m-44 -88 c4 -19 1 -25 -13 -25 -14 0 -17
6 -15 28 5 35 4 34 15 28 5 -3 11 -17 13 -31z m198 -29 c0 -8 3 -22 6 -31 5
-13 2 -16 -11 -14 -27 6 -31 59 -4 59 5 0 9 -6 9 -14z"/>
<path d="M1942 1483 l-2 -103 105 0 105 0 -2 103 c-1 71 -3 82 -5 37 -4 -86
-10 -110 -28 -110 -8 0 -15 -4 -15 -10 0 -5 -7 -10 -16 -10 -8 0 -12 5 -9 10
3 6 -1 10 -10 10 -9 0 -13 -4 -10 -10 3 -5 -1 -10 -10 -10 -9 0 -13 5 -10 10
3 6 -1 10 -10 10 -9 0 -13 -4 -10 -10 3 -6 -4 -10 -17 -9 -13 0 -17 3 -10 6
10 4 7 9 -10 17 -20 10 -24 20 -29 91 l-5 80 -2 -102z"/>
<path d="M1972 1508 l3 -73 73 -3 72 -3 0 76 c0 41 -4 75 -9 75 -5 0 -20 -19
-33 -42 -33 -59 -52 -68 -80 -40 -18 18 -20 26 -12 40 6 9 19 17 29 17 10 0
20 6 23 13 2 8 -8 12 -33 12 l-36 0 3 -72z"/>
<path d="M2054 1554 c-9 -14 -23 -23 -30 -20 -18 7 -29 -13 -16 -26 14 -14 37
4 58 44 18 35 10 37 -12 2z"/>
<path d="M2970 790 c0 -520 3 -790 10 -790 7 0 10 270 10 790 0 520 -3 790
-10 790 -7 0 -10 -270 -10 -790z"/>
<path d="M1505 1532 l-30 -17 48 -3 c26 -2 67 -2 90 0 l42 3 -32 18 c-40 21
-79 21 -118 -1z"/>
<path d="M2381 1522 c-14 -27 -2 -62 20 -62 25 0 34 25 21 56 -14 29 -28 31
-41 6z m31 -22 c3 -20 0 -30 -8 -30 -8 0 -12 10 -10 28 6 44 12 45 18 2z"/>
<path d="M1090 1514 c0 -11 9 -14 37 -12 52 4 56 28 4 28 -30 0 -41 -4 -41
-16z"/>
<path d="M1068 1473 c34 -2 90 -2 125 0 34 2 6 3 -63 3 -69 0 -97 -1 -62 -3z"/>
<path d="M502 1418 c-17 -17 -15 -53 4 -69 14 -11 19 -10 35 9 30 38 -6 93
-39 60z m33 -28 c0 -13 -6 -25 -12 -27 -16 -6 -27 21 -19 43 9 23 31 11 31
-16z"/>
<path d="M969 1363 c0 -5 -2 -18 -5 -29 -4 -26 17 -47 40 -38 19 7 21 45 4 62
-13 13 -38 16 -39 5z m31 -12 c0 -5 3 -16 6 -25 4 -11 0 -16 -14 -16 -15 0
-18 5 -14 25 4 23 22 36 22 16z"/>
<path d="M385 1150 c-16 -18 -17 -23 -5 -45 15 -27 30 -31 48 -13 22 22 8 78
-18 78 -4 0 -15 -9 -25 -20z m43 -23 c-2 -11 -9 -22 -15 -25 -16 -4 -27 22
-19 43 8 22 38 6 34 -18z"/>
<path d="M2602 1068 c-17 -17 -15 -53 3 -68 13 -10 19 -10 35 5 24 22 25 38 4
59 -19 19 -26 20 -42 4z m38 -34 c0 -15 -6 -24 -15 -24 -21 0 -30 27 -15 45
16 19 30 10 30 -21z"/>
<path d="M992 914 c-19 -13 -22 -25 -22 -80 0 -63 12 -84 25 -43 4 11 5 41 3
67 -2 38 0 47 15 50 13 3 17 -3 17 -27 0 -25 4 -31 21 -31 16 0 20 5 17 28 -2
20 1 27 15 27 9 0 17 -3 17 -7 0 -5 0 -37 0 -73 0 -51 -3 -65 -15 -65 -10 0
-15 10 -15 30 0 23 -4 30 -20 30 -16 0 -20 -7 -20 -30 0 -20 -5 -30 -15 -30
-8 0 -15 -4 -15 -10 0 -5 4 -10 9 -10 6 0 13 5 16 10 8 13 45 13 45 1 0 -11
56 -8 84 4 11 5 26 3 39 -4 12 -8 23 -9 29 -3 6 6 20 6 39 -1 21 -8 34 -9 47
-1 12 8 22 8 35 0 13 -8 20 -8 27 4 7 11 14 12 32 3 29 -13 66 -15 73 -2 8 12
55 12 55 -1 0 -14 28 -12 33 3 3 9 8 9 21 -2 9 -8 20 -11 24 -7 4 4 -1 12 -11
18 -15 8 -18 20 -16 61 2 44 0 52 -14 49 -9 -2 -17 2 -17 8 0 5 0 13 0 17 0 4
21 7 48 7 35 0 47 -4 47 -14 0 -8 -6 -14 -13 -12 -8 1 -12 -14 -12 -52 0 -45
3 -55 20 -59 17 -4 19 1 22 67 2 55 6 71 18 71 9 0 16 -11 18 -27 2 -20 9 -28
22 -28 14 0 18 7 17 28 -1 18 3 27 13 27 12 0 16 -16 18 -72 2 -60 0 -73 -13
-73 -8 0 -15 -4 -15 -10 0 -14 13 -13 28 2 10 10 17 10 32 0 24 -15 66 -16 75
-2 9 14 43 12 48 -2 3 -10 7 -10 20 0 10 9 28 12 49 7 26 -5 29 -4 15 5 -9 6
-24 24 -32 40 -21 41 -35 38 -28 -6 5 -31 3 -36 -12 -33 -16 4 -19 14 -18 74
1 38 6 71 11 73 5 1 20 -14 33 -35 l24 -38 3 38 c2 23 8 37 17 37 10 0 15 -18
17 -67 4 -82 22 -90 26 -11 2 47 -1 60 -19 77 -17 15 -26 18 -40 10 -13 -7
-26 -6 -40 1 -15 9 -24 8 -35 -1 -11 -9 -18 -9 -26 -1 -16 16 -71 15 -86 0
-10 -10 -17 -10 -32 0 -16 9 -24 10 -39 0 -14 -9 -23 -9 -33 -1 -19 16 -202
11 -222 -6 -9 -8 -19 -11 -23 -7 -3 3 -17 -10 -30 -29 l-24 -35 20 -29 c25
-34 27 -51 6 -51 -8 0 -22 15 -32 33 l-18 32 -3 -32 c-2 -21 -9 -33 -18 -33
-11 0 -14 17 -14 76 0 55 3 75 12 72 7 -3 15 -15 19 -29 l6 -24 13 28 c7 15
19 27 27 27 7 0 13 3 13 8 0 14 -176 8 -193 -7 -14 -11 -21 -11 -42 3 -22 15
-27 15 -48 1 -20 -13 -26 -13 -43 -1 -13 10 -24 11 -36 5 -12 -6 -25 -6 -36 0
-14 7 -25 6 -40 -5z m214 -74 c28 -77 28 -80 8 -80 -9 0 -18 9 -21 20 -3 11
-14 20 -23 20 -10 0 -22 -9 -25 -20 -5 -16 -35 -30 -35 -17 0 4 33 104 45 135
10 26 28 5 51 -58z m112 47 c3 -15 -1 -18 -16 -13 -24 8 -45 -15 -40 -46 2
-17 11 -24 31 -26 34 -4 34 -35 0 -40 -56 -8 -89 99 -40 133 28 20 61 16 65
-8z m220 -39 c26 -74 27 -88 7 -88 -8 0 -15 7 -15 15 0 28 -31 30 -51 4 -10
-13 -21 -20 -25 -16 -11 11 36 147 51 147 6 0 21 -28 33 -62z m342 42 c27 -27
27 -83 -2 -110 -27 -25 -43 -25 -68 0 -39 39 -17 130 32 130 10 0 27 -9 38
-20z"/>
<path d="M1824 866 c-3 -8 -4 -25 -2 -38 4 -32 42 -32 46 0 6 38 -32 70 -44
38z"/>
<path d="M1698 790 c3 -23 0 -30 -12 -30 -9 0 -16 -5 -16 -11 0 -6 6 -8 13 -5
6 3 20 9 30 12 9 4 17 12 17 19 0 8 3 20 6 29 5 12 0 16 -18 16 -22 0 -24 -4
-20 -30z"/>
<path d="M342 708 c-17 -17 -15 -32 8 -53 16 -15 22 -16 35 -5 22 19 15 64
-10 68 -11 1 -26 -3 -33 -10z m46 -26 c2 -14 -2 -22 -12 -22 -19 0 -29 17 -22
36 8 22 30 12 34 -14z"/>
<path d="M702 708 c-24 -24 -11 -78 19 -78 23 0 35 40 19 69 -12 24 -21 26
-38 9z m32 -30 c5 -23 3 -28 -13 -28 -14 0 -19 6 -18 23 0 12 6 25 11 29 13 8
12 9 20 -24z"/>
<path d="M1961 476 c-16 -19 -10 -60 9 -62 8 0 10 1 3 3 -14 5 -12 55 3 60 6
2 14 -11 18 -28 3 -18 8 -30 11 -28 7 8 -10 62 -22 66 -5 2 -16 -3 -22 -11z"/>
<path d="M2522 358 c-32 -32 7 -80 44 -54 16 12 16 18 6 40 -12 28 -31 33 -50
14z m40 -23 c4 -21 1 -25 -17 -25 -17 0 -21 5 -19 23 3 29 2 27 18 27 7 0 16
-11 18 -25z"/>
<path d="M1442 228 c-17 -17 -15 -53 4 -68 12 -11 18 -10 31 3 13 13 15 23 7
44 -11 31 -25 38 -42 21z m28 -28 c0 -19 -5 -30 -14 -30 -10 0 -14 9 -12 28 4
33 4 32 16 32 6 0 10 -13 10 -30z"/>
<path d="M542 208 c-23 -23 -7 -68 25 -68 21 0 35 37 23 60 -12 23 -30 26 -48
8z m36 -31 c2 -18 -1 -27 -11 -27 -18 0 -29 24 -20 45 8 23 28 12 31 -18z"/>
<path d="M797 163 c-11 -10 -8 -113 3 -113 6 0 10 -7 10 -15 0 -8 -4 -15 -10
-15 -5 0 -10 -4 -10 -10 0 -5 7 -10 15 -10 11 0 15 18 17 78 l3 77 150 0 150
0 5 -75 c4 -62 8 -75 23 -76 15 -2 17 8 17 82 l0 84 -183 0 c-101 0 -187 -3
-190 -7z"/>
<path d="M840 70 l0 -70 135 0 135 0 0 70 0 70 -135 0 -135 0 0 -70z m58 32
c3 -18 -1 -22 -22 -22 -19 0 -26 5 -26 18 0 39 43 43 48 4z m66 12 c8 -21 -1
-34 -25 -34 -14 0 -19 7 -19 25 0 29 34 36 44 9z m64 -12 c3 -18 -1 -22 -22
-22 -19 0 -26 5 -26 18 0 39 43 43 48 4z m60 0 c3 -18 -1 -22 -22 -22 -19 0
-26 5 -26 18 0 39 43 43 48 4z m-188 -68 c0 -21 -4 -25 -22 -22 -15 2 -24 11
-26 26 -3 18 1 22 22 22 21 0 26 -5 26 -26z m65 1 c0 -13 -8 -21 -22 -23 -19
-3 -23 1 -23 23 0 22 4 26 23 23 14 -2 22 -10 22 -23z m65 -1 c0 -21 -4 -25
-22 -22 -15 2 -24 11 -26 26 -3 18 1 22 22 22 21 0 26 -5 26 -26z m60 1 c0
-18 -5 -25 -19 -25 -11 0 -23 5 -26 10 -11 18 3 40 25 40 15 0 20 -7 20 -25z"/>
<path d="M1286 127 c-10 -8 -20 -30 -23 -52 -2 -21 -9 -47 -15 -58 -9 -17 -8
-19 7 -14 9 4 21 7 26 7 5 0 9 23 9 50 l0 50 135 0 135 0 0 -49 c0 -44 2 -49
26 -54 18 -3 24 -1 20 9 -3 7 -8 28 -11 47 -13 69 -30 77 -168 77 -86 0 -129
-4 -141 -13z"/>
<path d="M1317 83 c-2 -5 -4 -23 -5 -41 l-2 -32 115 0 115 0 0 40 0 40 -109 0
c-61 0 -112 -3 -114 -7z"/>
<path d="M655 69 c-5 -8 -1 -9 13 -5 15 5 21 1 24 -19 4 -19 1 -25 -13 -25
-12 0 -16 5 -13 15 4 8 1 15 -5 15 -16 0 -13 -25 4 -40 23 -19 45 4 36 38 -8
29 -34 41 -46 21z"/>
<path d="M1711 28 c1 -30 2 -31 8 -8 9 33 46 35 45 3 0 -13 3 -23 7 -23 4 0 9
10 11 23 2 14 10 22 23 22 14 0 20 -6 19 -22 -1 -30 14 -30 18 0 2 14 10 22
23 22 14 0 20 -6 19 -22 -1 -30 14 -30 18 -1 5 34 38 37 38 4 0 -14 5 -26 10
-26 6 0 10 11 10 25 0 18 5 25 20 25 15 0 20 -7 20 -25 0 -14 6 -25 13 -25 8
0 13 10 13 22 -1 17 5 24 22 26 18 3 22 -1 22 -22 0 -14 5 -26 11 -26 6 0 9
12 7 28 l-3 27 -187 3 -188 2 1 -32z"/>
<path d="M2287 44 c-10 -10 -9 -44 2 -44 5 0 8 7 7 16 -2 26 22 28 27 2 5 -21
5 -21 4 2 -2 24 -26 38 -40 24z"/>
</g>
</svg>
